<?xml version="1.0" encoding="UTF-8"?><svg id="Layer_1" xmlns="http://www.w3.org/2000/svg" xmlns:xlink="http://www.w3.org/1999/xlink" viewBox="0 0 2175.54 621.77"><defs><style>.cls-1{fill:url(#linear-gradient);}.cls-1,.cls-2,.cls-3,.cls-4{stroke-width:0px;}.cls-5{letter-spacing:-.01em;}.cls-2{fill:url(#linear-gradient-2);}.cls-6{font-family:Ubuntu-Bold, Ubuntu;font-size:225.22px;font-weight:700;}.cls-6,.cls-7,.cls-4{fill:#020055;}.cls-7{font-family:HammersmithOne, 'Hammersmith One';font-size:79.43px;letter-spacing:.59em;}.cls-8{letter-spacing:0em;}.cls-3{fill:#3fdbff;}</style><linearGradient id="linear-gradient" x1="77.55" y1="331.74" x2="152.03" y2="341.61" gradientUnits="userSpaceOnUse"><stop offset=".06" stop-color="#2272ae"/><stop offset=".83" stop-color="#020055"/></linearGradient><linearGradient id="linear-gradient-2" x1="176.76" y1="350.47" x2="311.16" y2="350.47" gradientUnits="userSpaceOnUse"><stop offset="0" stop-color="#3fdbff"/><stop offset="1" stop-color="#020055"/></linearGradient></defs><text class="cls-6" transform="translate(357.14 409.45) scale(.94 1)"><tspan x="0" y="0">ballo inn</tspan><tspan class="cls-5" x="924.07" y="0">o</tspan><tspan class="cls-8" x="1057.63" y="0">v</tspan><tspan x="1179.25" y="0">ations </tspan></text><text class="cls-7" transform="translate(364.52 480.98) scale(.94 1)"><tspan x="0" y="0">REBRANDING THE FUTURE</tspan></text><path class="cls-4" d="m285.44,434c-6.32,8.57-23.48,30.84-52.97,41.53-13.58,4.92-27.39,6.51-40.89,8.06-13.97,1.61-25.75,1.86-34.15,1.76.2-20.72.39-41.43.59-62.15,9.41.47,28.54.1,48.81-10.53,11.74-6.16,20.01-13.74,25.32-19.51h0c9.14-11.47,13.6-24.67,13.4-39.33-.24-18.23-7.17-33.6-20.58-45.93-8.15-7.49-17.33-12.15-27.44-14.44-12.07-2.74-20.77-13.26-20.77-25.64v-.36c0-23.61,23.01-40.49,45.48-33.21,24.63,7.98,48.9,24.16,65.75,49.23,32.11,47.78,30.71,105.38-2.55,150.52Z"/><path class="cls-4" d="m158.24,302.7c.63,58.17.19,116.35.17,174.53,0,2.63-.3,5.25-.49,8.12h-84.15V177.7c22.2-.33,41.9,7.58,57.93,29.96,18.49,25.81,26.15,58.78,26.54,95.04Z"/><path class="cls-3" d="m114.8,63.48c-23.43-.19-42.68,20.58-41.02,44.4,1.68,24.06,20.4,40.45,43.34,39.81,23.97-.67,42.57-20.97,41.3-43.4-1.36-23.98-20.84-42.2-43.62-40.81Z"/><path class="cls-1" d="m147.73,340.1c-14.93,63.01-45.96,111.92-74.34,146.16V176.8c6.55-.01,16.32.79,26.93,5.11,30.07,12.26,42.04,42.71,46.88,55.02,4.36,11.1,14.9,42.56.54,103.16Z"/><path class="cls-2" d="m290.09,429.08c-10.03,14.15-24.77,26.6-24.77,26.6-6.66,5.63-12.78,9.81-17.48,12.76,36.05-49.04,44.79-104.98,22.93-137.94-5.63-8.49-15.19-22.92-32.97-30.64-23.25-10.1-45.64-2.26-56.32-16.63-3.93-5.29-4.65-11.41-4.72-15.38-.03-2.53.2-5.94,1.28-9.78,1.56-5.59,4.21-9.63,6.09-12.04,2-2.64,5.89-7.02,12.17-10.1,1.53-.75,7.47-3.51,16.78-3.39,5.04.06,16.63,1.05,36.14,13.83,7.65,5.01,20.85,13.83,33.65,30.16,20.64,26.35,25.56,53.55,26.73,61.04,5.61,35.94-4.54,70.41-19.51,91.51Z"/></svg>